<svg width="18" height="18" viewBox="0 0 18 18" fill="none" xmlns="http://www.w3.org/2000/svg">
<path d="M11.1054 5.21043H11.1138M7.73695 16.1575H3.52635C2.85632 16.1575 2.21374 15.8914 1.73995 15.4176C1.26617 14.9439 1 14.3013 1 13.6313V3.52626C1 2.85625 1.26617 2.21369 1.73995 1.73992C2.21374 1.26616 2.85632 1 3.52635 1H13.6318C14.3018 1 14.9444 1.26616 15.4182 1.73992C15.892 2.21369 16.1581 2.85625 16.1581 3.52626V8.15773M1 11.9471L5.21059 7.73669C5.99208 6.98471 6.95546 6.98471 7.73695 7.73669L9.42118 9.42086M13.4636 16.0034L11.6345 16.9617C11.5802 16.99 11.5191 17.0026 11.4581 16.9981C11.3971 16.9937 11.3385 16.9724 11.2889 16.9366C11.2392 16.9008 11.2006 16.8519 11.1771 16.7953C11.1537 16.7388 11.1464 16.6769 11.1561 16.6165L11.5056 14.5862L10.026 13.1488C9.98186 13.1061 9.95059 13.0518 9.93578 12.9922C9.92098 12.9326 9.92323 12.87 9.94229 12.8116C9.96134 12.7532 9.99643 12.7014 10.0436 12.662C10.0907 12.6226 10.1479 12.5972 10.2088 12.5888L12.2534 12.2924L13.168 10.4457C13.1953 10.3907 13.2375 10.3444 13.2897 10.312C13.3419 10.2797 13.4021 10.2626 13.4636 10.2626C13.525 10.2626 13.5852 10.2797 13.6374 10.312C13.6896 10.3444 13.7318 10.3907 13.7591 10.4457L14.6737 12.2924L16.7183 12.5888C16.779 12.5975 16.836 12.623 16.8829 12.6625C16.9298 12.7019 16.9648 12.7537 16.9838 12.812C17.0028 12.8702 17.0051 12.9327 16.9905 12.9922C16.9759 13.0517 16.9449 13.1059 16.9011 13.1488L15.4215 14.5862L15.7701 16.6156C15.7806 16.6762 15.7739 16.7384 15.7507 16.7953C15.7276 16.8522 15.689 16.9014 15.6392 16.9375C15.5895 16.9735 15.5307 16.9949 15.4694 16.9992C15.4081 17.0035 15.3469 16.9905 15.2926 16.9617L13.4636 16.0034Z" stroke="black" stroke-linecap="round" stroke-linejoin="round"/>
</svg>
