<svg width="14" height="18" viewBox="0 0 14 18" fill="none" xmlns="http://www.w3.org/2000/svg">
<path d="M4.75 7.92436C4.75 8.61306 4.98705 9.27355 5.40901 9.76053C5.83096 10.2475 6.40326 10.5211 7 10.5211C7.59673 10.5211 8.16903 10.2475 8.59099 9.76053C9.01294 9.27355 9.25 8.61306 9.25 7.92436C9.25 7.23567 9.01294 6.57518 8.59099 6.0882C8.16903 5.60122 7.59673 5.32763 7 5.32763C6.40326 5.32763 5.83096 5.60122 5.40901 6.0882C4.98705 6.57518 4.75 7.23567 4.75 7.92436Z" stroke="black" stroke-linecap="round" stroke-linejoin="round"/>
<path d="M11.2427 12.8209L8.0605 16.4936C7.77924 16.8179 7.39794 17 7.00038 17C6.60281 17 6.22151 16.8179 5.94025 16.4936L2.75725 12.8209C1.91817 11.8525 1.34675 10.6186 1.11527 9.27541C0.883782 7.93218 1.00262 6.53988 1.45675 5.2746C1.91089 4.00931 2.67992 2.92785 3.66661 2.16698C4.6533 1.40611 5.81333 1 7 1C8.18667 1 9.3467 1.40611 10.3334 2.16698C11.3201 2.92785 12.0891 4.00931 12.5432 5.2746C12.9974 6.53988 13.1162 7.93218 12.8847 9.27541C12.6532 10.6186 12.0818 11.8525 11.2427 12.8209Z" stroke="black" stroke-linecap="round" stroke-linejoin="round"/>
</svg>
