<svg width="20" height="16" viewBox="0 0 20 16" fill="none" xmlns="http://www.w3.org/2000/svg">
<path d="M1.18004 15.2818C1.09379 15.2812 1.00878 15.2608 0.931266 15.2222C0.853748 15.1835 0.785697 15.1276 0.732128 15.0585C0.678558 14.9894 0.640835 14.9089 0.621736 14.823C0.602638 14.737 0.602651 14.6477 0.621774 14.5618C2.20438 7.49067 6.01047 3.83467 11.3444 4.17956V1.00178C11.3503 0.88083 11.3871 0.763581 11.4512 0.661731C11.5153 0.559881 11.6044 0.476991 11.7096 0.421334C11.8195 0.36871 11.942 0.34961 12.0623 0.366321C12.1826 0.383033 12.2956 0.434847 12.3879 0.515556L19.514 6.72533C19.6478 6.85463 19.7267 7.03236 19.7339 7.22044C19.7214 7.40645 19.6395 7.58046 19.5053 7.70667L12.3783 13.8889C12.2817 13.9605 12.1693 14.0064 12.0511 14.0227C11.9329 14.039 11.8126 14.0251 11.7009 13.9822C11.5925 13.9283 11.501 13.8446 11.4365 13.7405C11.372 13.6365 11.3371 13.5161 11.3357 13.3929V10.0356C4.01569 9.23111 1.79308 14.6373 1.7009 14.88C1.66415 14.9933 1.59456 15.0925 1.50138 15.1644C1.40819 15.2363 1.29582 15.2776 1.17917 15.2827L1.18004 15.2818ZM9.91743 8.82844C10.5906 8.82657 11.263 8.8735 11.9296 8.96889C12.0783 9.00056 12.213 9.0805 12.3136 9.19679C12.4142 9.31309 12.4753 9.45951 12.4879 9.61422V12.2987L18.3157 7.248L12.4879 2.18844V4.75111C12.4852 4.84077 12.4652 4.92901 12.4291 5.01077C12.393 5.09253 12.3414 5.1662 12.2774 5.22756C12.2124 5.28507 12.1369 5.32883 12.0553 5.35629C11.9736 5.38376 11.8875 5.39438 11.8018 5.38756C7.6209 4.91022 4.52873 7.032 2.71656 11.5404C4.67153 9.69518 7.25689 8.70796 9.91656 8.79111L9.91743 8.82844Z" fill="#121212"/>
</svg>
