<svg width="10" height="11" viewBox="0 0 10 11" fill="none" xmlns="http://www.w3.org/2000/svg">
<path d="M8.99993 2.5C9.12737 2.50014 9.24995 2.54894 9.34262 2.63642C9.43529 2.72391 9.49105 2.84348 9.49852 2.9707C9.50599 3.09792 9.4646 3.22319 9.3828 3.32092C9.30101 3.41864 9.18498 3.48145 9.05843 3.4965L8.99993 3.5H8.95943L8.49993 9C8.49996 9.38261 8.35377 9.75076 8.09129 10.0291C7.82881 10.3075 7.46988 10.4751 7.08793 10.4975L6.99993 10.5H2.99993C2.20093 10.5 1.54793 9.8755 1.50393 9.125L1.50143 9.0415L1.03993 3.5H0.999934C0.872495 3.49986 0.749918 3.45106 0.65725 3.36358C0.564582 3.27609 0.508817 3.15652 0.501348 3.0293C0.49388 2.90208 0.535272 2.77681 0.617067 2.67908C0.698862 2.58136 0.814886 2.51855 0.941434 2.5035L0.999934 2.5H8.99993Z" fill="#333333"/>
<path d="M5.99994 0.5C6.26516 0.5 6.51951 0.605357 6.70705 0.792893C6.89458 0.98043 6.99994 1.23478 6.99994 1.5C6.9998 1.62744 6.951 1.75002 6.86351 1.84268C6.77603 1.93535 6.65646 1.99112 6.52924 1.99859C6.40202 2.00605 6.27675 1.96466 6.17902 1.88287C6.0813 1.80107 6.01849 1.68505 6.00344 1.5585L5.99994 1.5H3.99994L3.99644 1.5585C3.98139 1.68505 3.91858 1.80107 3.82086 1.88287C3.72313 1.96466 3.59786 2.00605 3.47064 1.99859C3.34342 1.99112 3.22385 1.93535 3.13636 1.84268C3.04888 1.75002 3.00008 1.62744 2.99994 1.5C2.99986 1.24771 3.09514 1.00472 3.26669 0.819726C3.43823 0.634735 3.67336 0.521422 3.92494 0.5025L3.99994 0.5H5.99994Z" fill="#333333"/>
<path d="M8.99993 2.5C9.12737 2.50014 9.24995 2.54894 9.34262 2.63642C9.43529 2.72391 9.49105 2.84348 9.49852 2.9707C9.50599 3.09792 9.4646 3.22319 9.3828 3.32092C9.30101 3.41864 9.18498 3.48145 9.05843 3.4965L8.99993 3.5H8.95943L8.49993 9C8.49996 9.38261 8.35377 9.75076 8.09129 10.0291C7.82881 10.3075 7.46988 10.4751 7.08793 10.4975L6.99993 10.5H2.99993C2.20093 10.5 1.54793 9.8755 1.50393 9.125L1.50143 9.0415L1.03993 3.5H0.999934C0.872495 3.49986 0.749918 3.45106 0.65725 3.36358C0.564582 3.27609 0.508817 3.15652 0.501348 3.0293C0.49388 2.90208 0.535272 2.77681 0.617067 2.67908C0.698862 2.58136 0.814886 2.51855 0.941434 2.5035L0.999934 2.5H8.99993Z" stroke="#333333"/>
<path d="M5.99994 0.5C6.26516 0.5 6.51951 0.605357 6.70705 0.792893C6.89458 0.98043 6.99994 1.23478 6.99994 1.5C6.9998 1.62744 6.951 1.75002 6.86351 1.84268C6.77603 1.93535 6.65646 1.99112 6.52924 1.99859C6.40202 2.00605 6.27675 1.96466 6.17902 1.88287C6.0813 1.80107 6.01849 1.68505 6.00344 1.5585L5.99994 1.5H3.99994L3.99644 1.5585C3.98139 1.68505 3.91858 1.80107 3.82086 1.88287C3.72313 1.96466 3.59786 2.00605 3.47064 1.99859C3.34342 1.99112 3.22385 1.93535 3.13636 1.84268C3.04888 1.75002 3.00008 1.62744 2.99994 1.5C2.99986 1.24771 3.09514 1.00472 3.26669 0.819726C3.43823 0.634735 3.67336 0.521422 3.92494 0.5025L3.99994 0.5H5.99994Z" stroke="#333333"/>
</svg>
